<?xml version="1.0" standalone="no"?>
<!DOCTYPE svg PUBLIC "-//W3C//DTD SVG 20010904//EN"
 "http://www.w3.org/TR/2001/REC-SVG-20010904/DTD/svg10.dtd">
<svg version="1.0" xmlns="http://www.w3.org/2000/svg"
 width="916.000000pt" height="916.000000pt" viewBox="0 0 916.000000 916.000000"
 preserveAspectRatio="xMidYMid meet">
<metadata>
Created by potrace 1.11, written by Peter Selinger 2001-2013
</metadata>
<g transform="translate(0.000000,916.000000) scale(0.100000,-0.100000)"
fill="#000000" stroke="none">
<path d="M4535 7681 c-6 -5 -30 -20 -55 -33 -25 -14 -124 -72 -220 -128 -96
-57 -218 -128 -270 -158 -95 -55 -479 -279 -535 -313 -16 -10 -46 -26 -65 -37
-19 -11 -201 -117 -404 -236 -203 -119 -373 -216 -378 -216 -4 0 -8 -4 -8 -10
0 -5 -4 -10 -9 -10 -5 0 -93 -49 -196 -110 -103 -60 -190 -110 -192 -110 -2 0
-16 -8 -31 -18 -15 -11 -98 -61 -184 -112 -181 -107 -229 -149 -272 -240 -30
-63 -31 -70 -31 -200 0 -169 18 -224 99 -298 61 -54 239 -154 1066 -595 41
-22 153 -82 248 -134 95 -51 175 -93 177 -93 2 0 34 -17 72 -38 37 -22 104
-58 148 -82 143 -76 167 -102 181 -195 5 -37 10 -1877 5 -1989 -1 -13 -5 -16
-13 -9 -7 6 -89 50 -183 98 -93 48 -201 104 -240 125 -38 20 -128 68 -200 105
-298 155 -345 180 -455 238 -63 33 -150 79 -193 101 -43 23 -94 55 -114 71
-34 29 -35 32 -39 120 -5 109 -16 173 -44 246 -42 115 -126 219 -250 313 -69
52 -204 121 -218 112 -14 -8 -7 -860 8 -931 23 -112 79 -191 182 -257 14 -9
70 -40 125 -69 54 -28 112 -59 128 -69 17 -10 64 -35 105 -57 64 -35 255 -138
497 -269 35 -19 91 -49 125 -68 35 -18 144 -78 243 -131 99 -54 200 -109 225
-123 25 -13 83 -45 130 -70 47 -24 90 -48 95 -52 6 -4 51 -29 100 -55 50 -27
165 -90 258 -142 167 -93 212 -108 236 -79 9 10 11 399 11 1507 0 822 -3 1517
-5 1544 -16 154 -96 244 -330 370 -38 21 -74 41 -80 45 -5 4 -73 40 -150 80
-77 40 -171 90 -208 112 -38 21 -70 38 -72 38 -2 0 -176 91 -387 203 -479 254
-635 337 -671 355 l-28 14 93 55 c145 86 1379 814 1413 833 17 9 82 48 145 85
63 38 124 74 135 80 11 6 97 56 190 112 94 55 186 110 205 120 19 11 52 30 72
42 l37 22 254 -150 c140 -83 270 -159 288 -170 19 -11 45 -26 59 -34 14 -8
122 -72 240 -142 118 -70 229 -135 245 -145 17 -9 208 -122 425 -250 217 -128
409 -241 425 -250 149 -85 331 -197 334 -204 3 -9 -33 -30 -244 -140 -55 -29
-129 -69 -165 -88 -36 -20 -119 -64 -185 -98 -66 -35 -182 -96 -258 -137 -76
-40 -186 -99 -245 -129 -59 -31 -129 -69 -157 -84 -27 -15 -88 -48 -135 -73
-47 -24 -114 -60 -150 -79 -255 -136 -329 -207 -366 -353 -13 -50 -12 -3052 0
-3078 7 -13 23 -23 38 -25 29 -3 39 1 368 183 107 59 218 120 245 135 47 26
211 114 375 203 41 22 91 49 110 60 49 27 875 473 985 532 206 109 284 181
321 295 16 49 18 108 22 518 2 331 0 462 -8 462 -16 0 -141 -64 -196 -102 -76
-51 -187 -168 -227 -239 -62 -110 -75 -159 -83 -309 -3 -47 -10 -96 -15 -110
-12 -32 -70 -70 -234 -155 -71 -37 -173 -90 -225 -118 -191 -100 -298 -156
-425 -222 -152 -79 -288 -150 -438 -229 l-107 -57 1 978 c0 573 4 1002 10
1037 12 71 35 101 114 148 56 33 87 50 258 142 37 20 97 52 135 72 37 20 101
55 142 77 41 22 104 56 140 75 109 59 152 82 235 127 608 325 728 390 794 433
137 87 181 180 176 370 -6 207 -55 274 -323 433 -145 86 -494 291 -587 344
-22 13 -130 76 -240 140 -110 65 -218 128 -240 140 -22 13 -86 50 -143 84 -57
34 -108 61 -113 61 -5 0 -9 4 -9 9 0 5 -8 11 -17 14 -10 4 -37 17 -60 31 -37
22 -584 342 -670 392 -18 11 -131 76 -251 147 -120 70 -223 127 -228 127 -6 0
-14 -4 -19 -9z"/>
</g>
</svg>
